<svg width="615" height="480" viewBox="0 0 615 480" fill="none" xmlns="http://www.w3.org/2000/svg">
<path d="M166.5 48L22.0139 192.981C21.0071 193.991 20.1015 195.098 19.3103 196.284C18.1101 198.085 17.184 200.053 16.5622 202.126L16 204L15.7593 205.083C15.2546 207.354 15 209.674 15 212V216.5C15 216.856 15.1321 217.886 15.308 219.095C15.7351 222.031 16.5018 224.905 17.4996 227.699L18.5 230.5L19.538 232.991C20.51 235.324 21.7252 237.548 23.1636 239.625C24.7162 241.868 26.5189 243.926 28.5371 245.761L28.6783 245.889C30.2234 247.294 31.8829 248.568 33.6394 249.697L34.2602 250.096C36.7477 251.695 39.3823 253.053 42.1279 254.151L45.5 255.5C48.8156 256.495 52.2586 257 55.7202 257H265.697C267.199 257 268.667 256.556 269.916 255.723L270.167 255.556C270.718 255.188 271.203 254.729 271.601 254.199C272.191 253.412 272.573 252.49 272.712 251.517L272.833 250.669C272.944 249.894 272.935 249.107 272.806 248.335C272.605 247.129 272.117 245.99 271.384 245.011L271.35 244.966C271.117 244.656 270.861 244.363 270.585 244.09L229.5 203.5L225 199L222.513 196.513C220.84 194.84 219.288 193.05 217.868 191.157L217 190L215.5 187.5L214 184C213.338 182.013 213 179.932 213 177.838V177.5V173V168V167.64C213 165.225 213.337 162.822 214 160.5L215.5 156.5C216.496 154.175 217.767 151.977 219.285 149.954L220 149L225 143.5L227.14 141.717C229.694 139.588 232.595 137.912 235.715 136.763C238.881 135.597 242.226 134.989 245.599 134.968L396.147 134.027C399.034 134.009 401.902 133.569 404.66 132.72C406.217 132.241 407.732 131.634 409.189 130.905L412 129.5L412.328 129.282C415.102 127.432 417.685 125.309 420.037 122.945L515.5 27L516.232 26.2678C517.364 25.1359 518 23.6007 518 22V19.9794C518 19.3324 517.877 18.6914 517.636 18.0907L517.594 17.9855C517.209 17.0218 516.518 16.2109 515.628 15.6768C514.89 15.2339 514.045 15 513.184 15H251H243.5L232 16.5L221 19.5L209 23.5L198.5 28L188 33.5L176 40.5L166.5 48Z" stroke="url(#paint0_linear_10_3)" stroke-width="30"/>
<path d="M448 432L592.486 287.019C593.493 286.009 594.398 284.902 595.19 283.716C596.39 281.915 597.316 279.947 597.938 277.874L598.5 276L598.741 274.917C599.245 272.646 599.5 270.326 599.5 268V263.5C599.5 263.144 599.368 262.114 599.192 260.905C598.765 257.969 597.998 255.095 597 252.301L596 249.5L594.962 247.009C593.99 244.676 592.775 242.452 591.336 240.375C589.784 238.132 587.981 236.074 585.963 234.239L585.822 234.111C584.277 232.706 582.617 231.432 580.861 230.303L580.24 229.904C577.752 228.305 575.118 226.947 572.372 225.849L569 224.5C565.684 223.505 562.241 223 558.78 223H348.803C347.301 223 345.833 223.444 344.584 224.277L344.333 224.444C343.782 224.812 343.297 225.271 342.899 225.801C342.309 226.588 341.927 227.51 341.788 228.483L341.667 229.331C341.556 230.106 341.565 230.893 341.694 231.665C341.895 232.871 342.383 234.01 343.116 234.989L343.15 235.034C343.383 235.344 343.639 235.637 343.915 235.91L385 276.5L389.5 281L391.987 283.487C393.66 285.16 395.212 286.95 396.632 288.843L397.5 290L399 292.5L400.5 296C401.162 297.987 401.5 300.068 401.5 302.162V302.5V307V312V312.36C401.5 314.775 401.163 317.178 400.5 319.5L399 323.5C398.004 325.825 396.733 328.023 395.215 330.046L394.5 331L389.5 336.5L387.36 338.283C384.806 340.412 381.905 342.088 378.785 343.237C375.619 344.403 372.274 345.011 368.901 345.032L218.353 345.973C215.466 345.991 212.598 346.431 209.84 347.28C208.283 347.759 206.768 348.366 205.311 349.095L202.5 350.5L202.172 350.718C199.398 352.568 196.815 354.691 194.463 357.055L99 453L98.2678 453.732C97.1359 454.864 96.5 456.399 96.5 458V460.021C96.5 460.668 96.6234 461.309 96.8637 461.909L96.9058 462.014C97.2913 462.978 97.9819 463.789 98.8719 464.323C99.6101 464.766 100.455 465 101.316 465H363.5H371L382.5 463.5L393.5 460.5L405.5 456.5L416 452L426.5 446.5L438.5 439.5L448 432Z" stroke="url(#paint1_linear_10_3)" stroke-width="30"/>
<defs>
<linearGradient id="paint0_linear_10_3" x1="266.5" y1="15" x2="266.5" y2="257" gradientUnits="userSpaceOnUse">
<stop stop-color="#FF914D"/>
<stop offset="1" stop-color="#FF4C31"/>
</linearGradient>
<linearGradient id="paint1_linear_10_3" x1="348" y1="465" x2="348" y2="223" gradientUnits="userSpaceOnUse">
<stop stop-color="#FF4C31"/>
<stop offset="1" stop-color="#FF914D"/>
</linearGradient>
</defs>
</svg>
